<svg width="120" height="40" viewBox="0 0 120 40" xmlns="http://www.w3.org/2000/svg"><path d="M40.5 4H34.3V16.2H40.5C43.9 16.2 46.7 13.4 46.7 10C46.7 6.7 43.9 4 40.5 4ZM34.3 17.8V30H37.4C40.8 30 43.6 27.2 43.6 23.8C43.6 20.5 40.8 17.8 37.4 17.8H34.3ZM27.2 23.8C27.2 20.5 30 17.8 33.3 17.8V4H30.2C26.8 4 24 6.7 24 10C24 12.5 25.5 14.6 27.6 15.6C25.2 16.7 23.5 19 23.5 21.8V23.8C23.5 27.2 26.3 30 29.7 30H33.3V17.8C30 17.8 27.2 20.5 27.2 23.8ZM33.3 4V17.8C30 17.8 27.2 15 27.2 11.7V10C27.2 6.7 30 4 33.3 4Z" fill="white"/><path d="M56.5 12.5V28H58.8V21.5H64.2V19.5H58.8V14.5H65V12.5H56.5ZM67.5 16V28H69.7V16H67.5ZM68.6 11.5C67.8 11.5 67.2 12.1 67.2 12.9C67.2 13.7 67.8 14.3 68.6 14.3C69.4 14.3 70 13.7 70 12.9C70 12.1 69.4 11.5 68.6 11.5ZM78.5 15.7C77.2 15.7 76.1 16.2 75.3 17.1V16H73.1V31.5H75.3V26.5C76.1 27.4 77.2 27.9 78.5 27.9C81.4 27.9 83.5 25.5 83.5 21.8C83.5 18.1 81.4 15.7 78.5 15.7ZM78.1 26C76.2 26 75.1 24.3 75.1 21.8C75.1 19.3 76.2 17.6 78.1 17.6C80 17.6 81.2 19.3 81.2 21.8C81.2 24.3 80 26 78.1 26ZM92.5 15.7C91.2 15.7 90.1 16.3 89.3 17.3V16H87.1V31.5H89.3V26.4C90.1 27.3 91.2 27.9 92.5 27.9C95.4 27.9 97.5 25.5 97.5 21.8C97.5 18.1 95.4 15.7 92.5 15.7ZM92.1 26C90.2 26 89 24.3 89 21.8C89 19.3 90.2 17.6 92.1 17.6C94 17.6 95.2 19.3 95.2 21.8C95.2 24.3 94 26 92.1 26ZM105.5 15.7C102.2 15.7 99.8 18.1 99.8 21.8C99.8 25.5 102.2 27.9 105.5 27.9C107.2 27.9 108.6 27.2 109.5 26L107.8 24.8C107.2 25.6 106.4 26 105.5 26C103.7 26 102.4 24.6 102.1 22.5H110V21.5C110 18 108.2 15.7 105.5 15.7ZM102.2 20.8C102.5 19 103.7 17.6 105.5 17.6C107.1 17.6 108 18.8 108.1 20.8H102.2Z" fill="white"/></svg>