<svg width="202" height="55" viewBox="0 0 202 55" fill="none" xmlns="http://www.w3.org/2000/svg">
<g clip-path="url(#clip0_416_121)">
<path d="M18.09 18.09H0V36.18L18.09 54.27V36.18H36.18L18.09 18.09H36.18V0H0L18.09 18.09ZM63.687 42.099H69.727V29.085H84.118V24.019H69.727V15.849H85.194V10.663H63.687V42.099ZM98.661 19.628C97.194 19.628 96.028 19.959 95.153 20.623C94.279 21.286 93.646 22.271 93.234 23.577H93.174V19.819H87.606V42.099H93.385V29.758C93.385 28.602 93.576 27.648 93.968 26.874C94.359 26.11 94.882 25.537 95.565 25.155C96.249 24.773 97.003 24.582 97.847 24.582C98.713 24.578 99.578 24.618 100.44 24.703V19.698C100.219 19.688 99.957 19.668 99.656 19.648C99.364 19.628 99.033 19.618 98.661 19.618V19.628ZM118.067 22.904H118.007C117.555 22.12 116.992 21.467 116.319 20.944C115.645 20.422 114.892 20.03 114.047 19.758C113.213 19.487 112.309 19.356 111.334 19.356C109.434 19.356 107.756 19.849 106.309 20.824C104.862 21.798 103.726 23.155 102.922 24.894C102.118 26.633 101.706 28.643 101.706 30.934C101.706 33.225 102.108 35.286 102.912 37.034C103.716 38.783 104.842 40.14 106.289 41.105C107.736 42.069 109.434 42.562 111.374 42.562C112.349 42.562 113.253 42.421 114.088 42.13C114.922 41.838 115.675 41.416 116.349 40.863C117.022 40.311 117.565 39.607 118.007 38.763H118.087V42.099H123.726V19.819H118.067V22.904ZM117.615 34.572C117.153 35.597 116.52 36.391 115.696 36.954C114.871 37.517 113.907 37.798 112.791 37.798C111.746 37.798 110.831 37.527 110.047 36.994C109.264 36.461 108.651 35.678 108.208 34.662C107.776 33.647 107.555 32.401 107.555 30.934C107.555 29.467 107.776 28.21 108.208 27.195C108.64 26.18 109.254 25.406 110.047 24.874C110.841 24.341 111.746 24.07 112.791 24.07C113.907 24.07 114.871 24.351 115.696 24.914C116.52 25.477 117.163 26.271 117.615 27.296C118.077 28.321 118.299 29.537 118.299 30.924C118.299 32.311 118.067 33.527 117.615 34.552V34.572ZM157.544 20.291C156.418 19.678 155.152 19.376 153.745 19.376C152.509 19.376 151.373 19.597 150.348 20.03C149.323 20.462 148.449 21.085 147.735 21.899C147.273 22.422 146.911 23.004 146.63 23.638C146.263 22.521 145.566 21.543 144.63 20.834C143.373 19.859 141.896 19.376 140.198 19.376C139.152 19.376 138.167 19.567 137.223 19.959C136.278 20.341 135.454 20.944 134.74 21.738C134.228 22.311 133.806 22.994 133.464 23.778V19.819H127.896V42.099H133.675V28.864C133.675 27.849 133.866 26.994 134.248 26.301C134.63 25.607 135.142 25.075 135.776 24.723C136.419 24.361 137.112 24.18 137.876 24.18C139.032 24.18 139.966 24.532 140.68 25.246C141.393 25.959 141.755 26.914 141.755 28.1V42.089H147.343V28.542C147.343 27.688 147.514 26.924 147.846 26.261C148.177 25.597 148.66 25.085 149.273 24.723C149.886 24.361 150.619 24.17 151.474 24.17C152.559 24.17 153.484 24.502 154.257 25.175C155.031 25.839 155.413 26.884 155.413 28.311V42.089H161.172V27.356C161.172 25.627 160.84 24.17 160.187 22.974C159.534 21.788 158.639 20.884 157.514 20.271L157.544 20.291ZM182.99 22.542C182.037 21.515 180.876 20.703 179.583 20.16C178.257 19.598 176.779 19.316 175.151 19.316C173.041 19.316 171.172 19.819 169.554 20.814C167.925 21.809 166.659 23.195 165.735 24.954C164.81 26.713 164.348 28.723 164.348 30.984C164.348 33.245 164.8 35.235 165.694 36.984C166.599 38.733 167.875 40.11 169.523 41.105C171.172 42.099 173.121 42.602 175.362 42.602C177.131 42.602 178.749 42.28 180.217 41.647C181.684 41.014 182.89 40.14 183.855 39.024C184.819 37.909 185.443 36.612 185.724 35.155H180.387C180.186 35.748 179.875 36.27 179.433 36.723C178.99 37.175 178.448 37.537 177.784 37.788C177.121 38.039 176.367 38.17 175.523 38.17C174.337 38.17 173.342 37.919 172.518 37.406C171.694 36.904 171.061 36.19 170.629 35.276C170.237 34.451 170.026 33.497 169.986 32.431H185.945V30.874C185.945 29.175 185.684 27.617 185.171 26.2C184.659 24.783 183.925 23.567 182.98 22.542H182.99ZM170.036 28.622C170.126 27.839 170.317 27.125 170.629 26.502C171.061 25.638 171.674 24.964 172.468 24.492C173.262 24.02 174.197 23.788 175.262 23.788C176.327 23.788 177.302 24.02 178.086 24.492C178.87 24.964 179.483 25.628 179.915 26.502C180.227 27.125 180.418 27.839 180.508 28.622H170.046H170.036ZM201.09 19.658C200.799 19.638 200.467 19.628 200.096 19.628C198.628 19.628 197.462 19.959 196.588 20.623C195.714 21.286 195.081 22.271 194.669 23.577H194.608V19.819H189.041V42.099H194.819V29.758C194.819 28.602 195.01 27.648 195.402 26.874C195.784 26.11 196.317 25.537 196.99 25.155C197.663 24.773 198.427 24.582 199.271 24.582C200.137 24.578 201.003 24.618 201.864 24.703V19.698C201.643 19.688 201.382 19.668 201.08 19.648L201.09 19.658Z" fill="white"/>
</g>
<defs>
<clipPath id="clip0_416_121">
<rect width="201.864" height="54.27" fill="white"/>
</clipPath>
</defs>
</svg>
