<svg width="414" height="151" viewBox="0 0 414 151" fill="none" xmlns="http://www.w3.org/2000/svg">
<path d="M188.098 102.655V62.9547H188.798L217.398 102.655H226.398V44.3547H216.398V83.9547H215.698L187.098 44.3547H178.098V102.655H188.098ZM254.698 103.555C267.898 103.555 275.998 94.9547 275.998 80.5547C275.998 66.2547 267.898 57.5547 254.698 57.5547C241.598 57.5547 233.398 66.2547 233.398 80.5547C233.498 94.9547 241.498 103.555 254.698 103.555ZM254.698 95.1547C247.698 95.1547 243.698 89.8547 243.698 80.5547C243.698 71.3547 247.698 65.9547 254.698 65.9547C261.698 65.9547 265.698 71.3547 265.698 80.5547C265.698 89.8547 261.698 95.1547 254.698 95.1547ZM285.098 47.6547V58.7547H278.098V66.7547H285.098V90.8547C285.098 99.4547 289.098 102.855 299.298 102.855C301.198 102.855 303.098 102.655 304.598 102.355V94.5547C303.398 94.6547 302.598 94.7547 301.198 94.7547C296.998 94.7547 295.098 92.8547 295.098 88.4547V66.7547H304.598V58.7547H295.098V47.6547H285.098ZM310.598 102.655H320.598V58.4547H310.598V102.655ZM315.598 51.1547C318.898 51.1547 321.598 48.4547 321.598 45.1547C321.598 41.7547 318.898 39.0547 315.598 39.0547C312.298 39.0547 309.598 41.7547 309.598 45.1547C309.598 48.4547 312.298 51.1547 315.598 51.1547ZM347.998 103.555C361.198 103.555 369.298 94.9547 369.298 80.5547C369.298 66.2547 361.198 57.5547 347.998 57.5547C334.898 57.5547 326.698 66.2547 326.698 80.5547C326.698 94.9547 334.698 103.555 347.998 103.555ZM347.998 95.1547C340.998 95.1547 336.998 89.8547 336.998 80.5547C336.998 71.3547 340.998 65.9547 347.998 65.9547C354.898 65.9547 358.998 71.3547 358.998 80.5547C358.898 89.8547 354.898 95.1547 347.998 95.1547ZM375.198 102.655H385.198V76.9547C385.198 70.4547 388.998 66.3547 394.898 66.3547C400.998 66.3547 403.798 69.7547 403.798 76.4547V102.655H413.798V74.0547C413.798 63.4547 408.398 57.5547 398.598 57.5547C391.998 57.5547 387.598 60.5547 385.498 65.5547H384.798V58.4547H375.098C375.198 58.4547 375.198 102.655 375.198 102.655Z" fill="white"/>
<path fill-rule="evenodd" clip-rule="evenodd" d="M24.9 26.3532C29.6 30.1532 31.3 29.8532 40.1 29.2532L123 24.2532C124.8 24.2532 123.3 22.4532 122.7 22.2532L108.9 12.3532C106.3 10.3532 102.7 7.95318 96 8.55318L15.8 14.4532C12.9 14.7532 12.3 16.2532 13.5 17.3532L24.9 26.3532ZM29.9 45.6532V132.853C29.9 137.553 32.2 139.253 37.5 138.953L128.6 133.653C133.9 133.353 134.5 130.153 134.5 126.353V39.7532C134.5 35.9532 133 33.8532 129.8 34.1532L34.6 39.7532C31.1 40.0532 29.9 41.8532 29.9 45.6532ZM119.8 50.3532C120.4 52.9532 119.8 55.6532 117.2 55.9532L112.8 56.8532V121.253C109 123.253 105.5 124.453 102.5 124.453C97.8 124.453 96.6 122.953 93.1 118.553L64.4 73.4532V117.053L73.5 119.053C73.5 119.053 73.5 124.353 66.2 124.353L46 125.553C45.4 124.353 46 121.453 48 120.853L53.3 119.353V61.7532L46 61.1532C45.4 58.5532 46.9 54.7532 51 54.4532L72.7 52.9532L102.6 98.5532V58.2532L95 57.3532C94.4 54.1532 96.8 51.7532 99.7 51.4532L119.8 50.3532ZM9.1 6.45318L92.6 0.353179C102.8 -0.546821 105.5 0.0531812 111.9 4.75318L138.5 23.4532C142.9 26.6532 144.4 27.5532 144.4 31.0532V133.753C144.4 140.153 142.1 143.953 133.9 144.553L37 150.453C30.8 150.753 27.9 149.853 24.7 145.753L5 120.253C1.5 115.553 0 112.053 0 107.953V16.6532C0 11.3532 2.4 7.05318 9.1 6.45318Z" fill="white"/>
</svg>
