<svg width="500" height="136" viewBox="0 0 500 136" fill="none" xmlns="http://www.w3.org/2000/svg">
<g clip-path="url(#clip0_416_109)">
<path d="M117.412 92.8431L117.342 92.6199L161.799 51.9205V32.3105H90.4754V51.9205H133.077L133.147 52.1084L89.125 92.8431V112.454H162.515V92.8431H117.412Z" fill="white"/>
<path d="M206.297 30.4434C198.07 30.4434 191.365 31.6842 186.182 34.1658C181.355 36.3285 177.288 39.8918 174.51 44.3935C171.853 48.9248 170.184 53.967 169.614 59.189L191.255 62.2304C192.038 57.6195 193.604 54.3512 195.952 52.4254C198.622 50.4112 201.912 49.3935 205.252 49.5485C209.644 49.5485 212.83 50.7228 214.811 53.0712C216.772 55.4197 217.77 58.6724 217.77 62.9584V65.0955H196.962C186.37 65.0955 178.761 67.444 174.135 72.141C169.508 76.838 167.199 83.0381 167.207 90.7412C167.207 98.6321 169.516 104.504 174.135 108.355C178.753 112.207 184.562 114.121 191.561 114.097C200.242 114.097 206.92 111.111 211.593 105.138C214.353 101.467 216.324 97.2651 217.382 92.7961H218.169L221.152 112.406H240.762V62.7471C240.762 52.4841 238.057 44.5345 232.648 38.8981C227.238 33.2617 218.455 30.4434 206.297 30.4434ZM213.155 91.6571C210.043 94.2521 205.969 95.5438 200.896 95.5438C196.715 95.5438 193.811 94.8119 192.183 93.348C191.39 92.6554 190.758 91.7966 190.334 90.8326C189.91 89.8687 189.703 88.8231 189.729 87.7703C189.682 86.7774 189.839 85.7854 190.188 84.8548C190.537 83.9242 191.072 83.0744 191.76 82.357C192.504 81.6591 193.382 81.1193 194.341 80.7702C195.3 80.421 196.319 80.2697 197.338 80.3255H217.805V81.6759C217.847 83.5847 217.449 85.4775 216.643 87.2081C215.836 88.9387 214.643 90.4609 213.155 91.6571Z" fill="white"/>
<path d="M359.328 32.3105H336.16V112.465H359.328V32.3105Z" fill="white"/>
<path d="M496.111 32.3105C489.567 32.3105 484.408 34.6198 480.635 39.2386C477.926 42.5578 475.867 47.4623 474.458 53.9519H473.777L470.748 32.3105H450.961V112.454H474.13V71.3543C474.13 66.172 475.343 62.1991 477.77 59.4357C480.196 56.6723 484.674 55.2906 491.203 55.2906H499.998V32.3105H496.111Z" fill="white"/>
<path d="M427.99 34.9316C422.581 31.7142 415.759 30.1094 407.523 30.1172C394.56 30.1172 384.414 33.8083 377.087 41.1904C369.759 48.5725 366.096 58.7493 366.096 71.7209C365.909 79.5632 367.621 87.3343 371.086 94.3721C374.258 100.644 379.198 105.849 385.295 109.344C391.432 112.891 398.732 114.668 407.194 114.675C414.514 114.675 420.628 113.548 425.536 111.294C430.151 109.269 434.169 106.095 437.208 102.076C440.102 98.1295 442.251 93.6884 443.549 88.9706L423.587 83.3811C422.747 86.449 421.129 89.2479 418.89 91.5069C416.635 93.7615 412.858 94.8888 407.558 94.8888C401.257 94.8888 396.56 93.0844 393.467 89.4755C391.225 86.8687 389.816 83.1463 389.193 78.3201H443.855C444.078 76.0656 444.195 74.175 444.195 72.6485V67.6579C444.327 60.9536 442.942 54.3061 440.144 48.2124C437.525 42.6612 433.288 38.0318 427.99 34.9316ZM406.854 49.2222C416.248 49.2222 421.575 53.8448 422.835 63.0901H389.604C390.132 60.0053 391.41 57.0977 393.327 54.6238C396.372 51.0149 400.881 49.2144 406.854 49.2222Z" fill="white"/>
<path d="M347.992 0.00751877C346.249 -0.0517559 344.512 0.239929 342.884 0.865259C341.256 1.49059 339.771 2.43677 338.516 3.64761C337.279 4.87005 336.309 6.3364 335.668 7.95351C335.027 9.57063 334.729 11.3032 334.794 13.0415C334.731 14.791 335.03 16.5346 335.671 18.1635C336.313 19.7925 337.283 21.2718 338.521 22.5091C339.76 23.7464 341.24 24.7152 342.869 25.3551C344.499 25.995 346.243 26.2922 347.992 26.2282C349.73 26.2939 351.464 25.9968 353.081 25.3559C354.698 24.7151 356.164 23.7444 357.386 22.5058C358.598 21.2544 359.544 19.7709 360.167 18.1444C360.791 16.5179 361.079 14.7822 361.014 13.0415C361.094 11.3111 360.813 9.583 360.187 7.96756C359.562 6.35213 358.607 4.88487 357.383 3.65944C356.158 2.43401 354.692 1.47735 353.077 0.850567C351.462 0.223787 349.734 -0.0593172 348.004 0.0192726L347.992 0.00751877Z" fill="white"/>
<path d="M300.141 30.1172C292.251 30.1172 285.91 32.5948 281.119 37.5501C277.572 41.2216 274.97 46.7015 273.31 53.9896H272.57L269.541 32.3482H249.754V135.494H272.922V93.01H273.768C274.475 95.8427 275.466 98.5966 276.727 101.229C278.687 105.518 281.901 109.113 285.945 111.539C290.138 113.827 294.861 114.966 299.636 114.839C309.336 114.839 316.722 111.062 321.795 103.507C326.867 95.9534 329.404 85.4126 329.404 71.8853C329.404 58.8198 326.95 48.5921 322.041 41.2021C317.133 33.8122 309.833 30.1172 300.141 30.1172ZM302.49 88.1955C299.789 92.1097 295.562 94.0668 289.808 94.0668C287.436 94.1763 285.071 93.719 282.911 92.7327C280.75 91.7464 278.856 90.2595 277.385 88.3952C274.386 84.6298 272.891 79.4748 272.899 72.9303V71.4038C272.899 64.7575 274.394 59.6691 277.385 56.1385C280.375 52.608 284.516 50.8622 289.808 50.9014C295.664 50.9014 299.918 52.7606 302.572 56.479C305.226 60.1975 306.553 65.3838 306.553 72.0378C306.569 78.9189 305.222 84.3048 302.513 88.1955H302.49Z" fill="white"/>
<path d="M80.1543 92.8438H0V112.477H80.1543V92.8438Z" fill="white"/>
</g>
<defs>
<clipPath id="clip0_416_109">
<rect width="500" height="136" fill="white"/>
</clipPath>
</defs>
</svg>
