<svg width="342" height="387" viewBox="0 0 342 387" fill="none" xmlns="http://www.w3.org/2000/svg">
<path d="M341.883 275.272C341.883 277.745 340.544 279.979 338.156 281.495L175.97 384.764C173.98 386.001 171.448 386.638 168.915 386.638C166.383 386.638 163.85 386.001 161.897 384.764L3.69016 283.41C1.33872 281.893 0 279.62 0 277.187C0 274.714 1.37477 272.44 3.72643 270.964L104.916 206.546C106.942 211.332 110.705 215.161 115.915 217.675C114.974 222.86 113.31 227.806 110.994 232.193C110.415 233.27 109.656 234.427 108.86 235.624L108.462 236.222C107.485 237.658 106.255 239.453 105.169 241.408C102.637 246.034 101.081 250.781 100.575 255.448L100.322 255.966C100.032 256.605 99.9599 257.323 100.105 258.001L101.624 264.702C96.8125 272.918 95.2568 281.614 97.0657 289.951L101.081 308.02C103.686 319.747 112.658 328.602 126.334 332.95C132.231 334.824 138.815 335.782 145.653 335.782C152.78 335.782 160.197 334.784 167.613 332.75C182.193 328.761 195.181 321.303 204.153 311.729C214.21 301 218.371 288.714 215.802 277.107L211.75 258.918C211.75 258.918 211.75 258.878 211.75 258.839C209.833 250.582 204.768 243.681 197.026 238.815L195.506 232.233C195.361 231.516 194.927 230.877 194.349 230.478L194.059 230.279C191.49 226.17 188.09 222.701 183.893 219.948C181.976 218.672 180.058 217.635 178.213 216.638C176.223 215.6 174.378 214.563 172.859 213.366C169.748 210.893 166.853 207.862 164.357 204.512C168.771 198.448 170.435 191.428 168.951 184.887C168.011 180.539 165.732 176.71 162.367 173.678C162.439 172.442 162.476 171.205 162.403 169.969L165.949 167.695C169.965 165.142 176.006 165.142 180.022 167.735L218.443 192.346C214.463 197.371 211.967 203.115 210.99 209.338C208.964 222.261 213.885 235.504 224.847 246.553C235.447 257.323 250.786 265.021 268.007 268.252C273.687 269.329 279.295 269.887 284.757 269.887C292.934 269.887 300.821 268.691 308.056 266.298C313.374 264.303 318.367 261.949 322.925 259.277L338.229 269.09C340.544 270.566 341.919 272.839 341.883 275.272Z" fill="white"/>
<path d="M203.915 261.08L207.943 279.223C209.724 287.265 206.732 296.595 198.542 305.332C182.043 322.93 150.733 331.467 128.57 324.409C117.425 320.86 110.722 314.037 108.918 305.891L104.891 287.748C106.696 295.894 113.398 302.717 124.543 306.266C146.706 313.324 178.016 304.787 194.515 287.189C202.705 278.452 205.697 269.122 203.915 261.08Z" fill="white" stroke="white" stroke-width="1.5" stroke-miterlimit="10" stroke-linecap="round" stroke-linejoin="round"/>
<path d="M190.073 244.92C207.113 253.416 209.428 271.286 194.523 287.201C178.025 304.791 146.695 313.327 124.554 306.267C104.439 299.845 98.7956 282.813 110.3 266.539" stroke="white" stroke-width="1.5" stroke-miterlimit="10" stroke-linecap="round" stroke-linejoin="round"/>
<path d="M153.925 203.477C157.543 210.138 162.499 216.081 168.143 220.548C171.797 223.46 175.921 225.056 179.72 227.569C183.374 229.962 186.268 233.073 188.185 236.703C188.258 236.743 188.258 236.783 188.258 236.823L190.754 248.111L191.731 252.419C193.178 258.92 190.754 266.419 184.133 273.479C170.856 287.68 145.64 294.54 127.768 288.836C118.796 286.004 113.405 280.46 111.922 273.918L111.054 270.089L108.449 258.163C108.413 258.123 108.413 258.083 108.449 258.043C108.63 253.974 109.932 249.906 112.067 245.997C113.839 242.726 116.227 239.934 117.964 236.583C121.979 229.084 124.222 220.269 124.693 211.414" stroke="white" stroke-width="1.5" stroke-miterlimit="10" stroke-linecap="round" stroke-linejoin="round"/>
<path d="M109.461 262.791C109.538 263.135 109.606 263.44 109.718 263.773C109.692 263.821 109.7 263.859 109.709 263.897L109.461 262.791Z" stroke="white" stroke-width="1.5" stroke-miterlimit="10" stroke-linecap="round" stroke-linejoin="round"/>
<path d="M189.273 241.32L189.547 242.541C189.539 242.503 189.53 242.465 189.487 242.436C189.436 242.045 189.359 241.702 189.273 241.32Z" stroke="white" stroke-width="1.5" stroke-miterlimit="10" stroke-linecap="round" stroke-linejoin="round"/>
<path d="M140.112 210.651C126.364 214.4 113.521 209.892 111.458 200.599C110.771 197.567 111.35 194.336 112.87 191.345C113.448 190.188 114.172 189.071 115.04 187.954C122.891 197.567 136.277 199.003 145.683 190.906C149.59 187.555 152.231 183.008 153.498 178.102C154.402 178.541 155.27 179.019 156.03 179.578C158.671 181.492 160.48 184.005 161.167 187.037C163.265 196.331 153.823 206.901 140.112 210.651Z" fill="white" stroke="white" stroke-width="1.5" stroke-miterlimit="10" stroke-linecap="round" stroke-linejoin="round"/>
<path d="M153.503 178.107C152.237 183.014 149.596 187.561 145.688 190.911C136.282 199.009 122.896 197.573 115.046 187.96C114.648 187.521 114.286 187.042 113.96 186.564C106.29 175.714 108.063 160.038 117.904 151.582C127.744 143.126 141.962 145.08 149.632 155.93C154.262 162.471 155.457 170.728 153.503 178.107Z" stroke="white" stroke-width="1.5" stroke-miterlimit="10" stroke-linecap="round" stroke-linejoin="round"/>
<path d="M331.56 232.039C328.304 253.06 300.447 265.385 269.334 259.522C238.221 253.658 215.682 231.839 218.938 210.819C220.312 201.924 226.101 194.584 234.639 189.559C234.386 190.316 234.205 191.154 234.096 191.952C231.238 210.26 248.821 228.888 273.386 233.515C297.951 238.142 320.091 227.013 322.95 208.705C323.094 207.867 323.167 207.029 323.167 206.231C329.715 214.129 332.935 223.144 331.56 232.039Z" fill="white" stroke="white" stroke-width="1.5" stroke-miterlimit="10" stroke-linecap="round" stroke-linejoin="round"/>
<path d="M309.782 124.82C309.818 134.113 310.252 143.248 311.157 152.222C312.676 167.46 317.379 182.019 321.938 196.498C322.915 199.609 323.349 202.8 323.168 206.031V206.23C323.168 207.028 323.095 207.866 322.951 208.703C320.093 227.012 297.952 238.141 273.387 233.514C248.822 228.887 231.239 210.259 234.097 191.951C234.206 191.153 234.387 190.315 234.64 189.557C234.64 189.478 234.64 189.438 234.676 189.358C235.472 186.247 236.847 183.415 238.692 180.822C247.375 168.816 256.166 156.81 262.208 142.969C265.753 134.871 268.901 126.455 271.723 117.68" stroke="white" stroke-width="1.5" stroke-miterlimit="10" stroke-linecap="round" stroke-linejoin="round"/>
<path d="M316.545 98.4574C316.545 98.4574 317.16 99.2153 317.233 99.2153C320.597 103.204 322.189 107.791 321.502 112.299C320.38 119.478 313.579 124.624 304.462 126.339C300.084 127.137 295.056 127.137 289.991 126.179C284.853 125.222 280.223 123.427 276.315 121.034C268.175 116.088 263.363 108.709 264.449 101.529C265.172 97.0215 268.067 93.3119 272.444 90.7591C272.553 90.7591 273.312 90.3203 273.312 90.3203" stroke="white" stroke-width="1.5" stroke-miterlimit="10" stroke-linecap="round" stroke-linejoin="round"/>
<path d="M267.348 60.8418L273.317 90.3187L275.56 101.408C275.958 103.362 276.971 105.117 278.454 106.354C281.131 108.587 286.015 111.898 292.021 113.055C293.577 113.334 295.132 113.494 296.616 113.533C296.724 113.573 296.833 113.573 296.941 113.533C297.737 113.573 298.497 113.573 299.22 113.533C300.197 113.454 301.174 113.414 302.115 113.214C303.815 113.015 305.769 112.337 307.252 111.739C308.771 111.06 310.074 109.864 310.978 108.308L316.55 98.4558L331.093 72.7681" stroke="white" stroke-width="1.5" stroke-miterlimit="10" stroke-linecap="round" stroke-linejoin="round"/>
<path d="M321.349 39.7006C331.226 45.7636 337.123 54.7783 335.748 63.5535C333.722 76.6766 316.356 84.2952 297.037 80.6653C277.682 77.0356 263.645 63.4738 265.671 50.3507C267.046 41.5754 275.294 35.2333 286.437 33.1191" stroke="white" stroke-width="1.5" stroke-miterlimit="10" stroke-linecap="round" stroke-linejoin="round"/>
<path d="M325.193 51.8635C323.746 61.2769 312.205 67.021 299.543 64.6273C286.808 62.2342 277.728 52.6211 279.175 43.1683C279.79 39.1795 282.178 35.8684 285.759 33.5547C285.759 33.5547 285.94 33.4753 286.085 33.3555C287.243 36.5063 289.088 39.4584 291.548 41.8915C300.339 50.5069 313.797 49.6694 321.648 40.0568C321.756 40.2165 321.865 40.3359 321.901 40.3359C324.542 43.846 325.808 47.8747 325.193 51.8635Z" stroke="white" stroke-width="1.5" stroke-miterlimit="10" stroke-linecap="round" stroke-linejoin="round"/>
<path d="M321.722 39.9796C321.686 40.0196 321.686 40.0196 321.65 40.0594C313.799 49.672 300.341 50.5095 291.549 41.8941C289.089 39.461 287.244 36.5089 286.086 33.3581C283.012 25.2612 284.205 15.6078 289.849 8.6275C297.7 -1.06495 311.194 -1.94243 319.985 6.71296C328.813 15.3687 329.573 30.2868 321.722 39.9796Z" fill="white" stroke="white" stroke-width="1.5" stroke-miterlimit="10" stroke-linecap="round" stroke-linejoin="round"/>
<path d="M221.672 172.096L235.974 159.465" stroke="white" stroke-width="1.5" stroke-miterlimit="10" stroke-linecap="round" stroke-linejoin="round"/>
<path d="M207.59 163.687L209.474 140.357" stroke="white" stroke-width="1.5" stroke-miterlimit="10" stroke-linecap="round" stroke-linejoin="round"/>
<path d="M341.883 275.272C341.883 277.745 340.544 279.979 338.156 281.495L175.97 384.764C173.98 386.001 171.448 386.638 168.915 386.638C166.383 386.638 163.85 386.001 161.897 384.764L3.69016 283.41C1.33872 281.893 0 279.62 0 277.187C0 274.714 1.37477 272.44 3.72643 270.964L104.916 206.546C106.942 211.332 110.705 215.161 115.915 217.675C114.974 222.86 113.31 227.806 110.994 232.193C110.415 233.27 109.656 234.427 108.86 235.624L108.462 236.222C107.485 237.658 106.255 239.453 105.169 241.408C102.637 246.034 101.081 250.781 100.575 255.448L100.322 255.966C100.032 256.605 99.9599 257.323 100.105 258.001L101.624 264.702C96.8125 272.918 95.2568 281.614 97.0657 289.951L101.081 308.02C103.686 319.747 112.658 328.602 126.334 332.95C132.231 334.824 138.815 335.782 145.653 335.782C152.78 335.782 160.197 334.784 167.613 332.75C182.193 328.761 195.181 321.303 204.153 311.729C214.21 301 218.371 288.714 215.802 277.107L211.75 258.918C211.75 258.918 211.75 258.878 211.75 258.839C209.833 250.582 204.768 243.681 197.026 238.815L195.506 232.233C195.361 231.516 194.927 230.877 194.349 230.478L194.059 230.279C191.49 226.17 188.09 222.701 183.893 219.948C181.976 218.672 180.058 217.635 178.213 216.638C176.223 215.6 174.378 214.563 172.859 213.366C169.748 210.893 166.853 207.862 164.357 204.512C168.771 198.448 170.435 191.428 168.951 184.887C168.011 180.539 165.732 176.71 162.367 173.678C162.439 172.442 162.476 171.205 162.403 169.969L165.949 167.695C169.965 165.142 176.006 165.142 180.022 167.735L218.443 192.346C214.463 197.371 211.967 203.115 210.99 209.338C208.964 222.261 213.885 235.504 224.847 246.553C235.447 257.323 250.786 265.021 268.007 268.252C273.687 269.329 279.295 269.887 284.757 269.887C292.934 269.887 300.821 268.691 308.056 266.298C313.374 264.303 318.367 261.949 322.925 259.277L338.229 269.09C340.544 270.566 341.919 272.839 341.883 275.272Z" fill="white"/>
<path d="M203.915 261.08L207.943 279.223C209.724 287.265 206.732 296.595 198.542 305.332C182.043 322.93 150.733 331.467 128.57 324.409C117.425 320.86 110.722 314.037 108.918 305.891L104.891 287.748C106.696 295.894 113.398 302.717 124.543 306.266C146.706 313.324 178.016 304.787 194.515 287.189C202.705 278.452 205.697 269.122 203.915 261.08Z" fill="white" stroke="white" stroke-width="1.5" stroke-miterlimit="10" stroke-linecap="round" stroke-linejoin="round"/>
<path d="M190.073 244.92C207.113 253.416 209.428 271.286 194.523 287.201C178.025 304.791 146.695 313.327 124.554 306.267C104.439 299.845 98.7956 282.813 110.3 266.539" stroke="white" stroke-width="1.5" stroke-miterlimit="10" stroke-linecap="round" stroke-linejoin="round"/>
<path d="M153.925 203.477C157.543 210.138 162.499 216.081 168.143 220.548C171.797 223.46 175.921 225.056 179.72 227.569C183.374 229.962 186.268 233.073 188.185 236.703C188.258 236.743 188.258 236.783 188.258 236.823L190.754 248.111L191.731 252.419C193.178 258.92 190.754 266.419 184.133 273.479C170.856 287.68 145.64 294.54 127.768 288.836C118.796 286.004 113.405 280.46 111.922 273.918L111.054 270.089L108.449 258.163C108.413 258.123 108.413 258.083 108.449 258.043C108.63 253.974 109.932 249.906 112.067 245.997C113.839 242.726 116.227 239.934 117.964 236.583C121.979 229.084 124.222 220.269 124.693 211.414" stroke="white" stroke-width="1.5" stroke-miterlimit="10" stroke-linecap="round" stroke-linejoin="round"/>
<path d="M109.461 262.791C109.538 263.135 109.606 263.44 109.718 263.773C109.692 263.821 109.7 263.859 109.709 263.897L109.461 262.791Z" stroke="white" stroke-width="1.5" stroke-miterlimit="10" stroke-linecap="round" stroke-linejoin="round"/>
<path d="M189.273 241.32L189.547 242.541C189.539 242.503 189.53 242.465 189.487 242.436C189.436 242.045 189.359 241.702 189.273 241.32Z" stroke="white" stroke-width="1.5" stroke-miterlimit="10" stroke-linecap="round" stroke-linejoin="round"/>
<path d="M140.112 210.651C126.364 214.4 113.521 209.892 111.458 200.599C110.771 197.567 111.35 194.336 112.87 191.345C113.448 190.188 114.172 189.071 115.04 187.954C122.891 197.567 136.277 199.003 145.683 190.906C149.59 187.555 152.231 183.008 153.498 178.102C154.402 178.541 155.27 179.019 156.03 179.578C158.671 181.492 160.48 184.005 161.167 187.037C163.265 196.331 153.823 206.901 140.112 210.651Z" fill="white" stroke="white" stroke-width="1.5" stroke-miterlimit="10" stroke-linecap="round" stroke-linejoin="round"/>
<path d="M153.503 178.107C152.237 183.014 149.596 187.561 145.688 190.911C136.282 199.009 122.896 197.573 115.046 187.96C114.648 187.521 114.286 187.042 113.96 186.564C106.29 175.714 108.063 160.038 117.904 151.582C127.744 143.126 141.962 145.08 149.632 155.93C154.262 162.471 155.457 170.728 153.503 178.107Z" stroke="white" stroke-width="1.5" stroke-miterlimit="10" stroke-linecap="round" stroke-linejoin="round"/>
<path d="M331.56 232.039C328.304 253.06 300.447 265.385 269.334 259.522C238.221 253.658 215.682 231.839 218.938 210.819C220.312 201.924 226.101 194.584 234.639 189.559C234.386 190.316 234.205 191.154 234.096 191.952C231.238 210.26 248.821 228.888 273.386 233.515C297.951 238.142 320.091 227.013 322.95 208.705C323.094 207.867 323.167 207.029 323.167 206.231C329.715 214.129 332.935 223.144 331.56 232.039Z" fill="white" stroke="white" stroke-width="1.5" stroke-miterlimit="10" stroke-linecap="round" stroke-linejoin="round"/>
<path d="M309.782 124.82C309.818 134.113 310.252 143.248 311.157 152.222C312.676 167.46 317.379 182.019 321.938 196.498C322.915 199.609 323.349 202.8 323.168 206.031V206.23C323.168 207.028 323.095 207.866 322.951 208.703C320.093 227.012 297.952 238.141 273.387 233.514C248.822 228.887 231.239 210.259 234.097 191.951C234.206 191.153 234.387 190.315 234.64 189.557C234.64 189.478 234.64 189.438 234.676 189.358C235.472 186.247 236.847 183.415 238.692 180.822C247.375 168.816 256.166 156.81 262.208 142.969C265.753 134.871 268.901 126.455 271.723 117.68" stroke="white" stroke-width="1.5" stroke-miterlimit="10" stroke-linecap="round" stroke-linejoin="round"/>
<path d="M316.545 98.4574C316.545 98.4574 317.16 99.2153 317.233 99.2153C320.597 103.204 322.189 107.791 321.502 112.299C320.38 119.478 313.579 124.624 304.462 126.339C300.084 127.137 295.056 127.137 289.991 126.179C284.853 125.222 280.223 123.427 276.315 121.034C268.175 116.088 263.363 108.709 264.449 101.529C265.172 97.0215 268.067 93.3119 272.444 90.7591C272.553 90.7591 273.312 90.3203 273.312 90.3203" stroke="white" stroke-width="1.5" stroke-miterlimit="10" stroke-linecap="round" stroke-linejoin="round"/>
<path d="M267.348 60.8418L273.317 90.3187L275.56 101.408C275.958 103.362 276.971 105.117 278.454 106.354C281.131 108.587 286.015 111.898 292.021 113.055C293.577 113.334 295.132 113.494 296.616 113.533C296.724 113.573 296.833 113.573 296.941 113.533C297.737 113.573 298.497 113.573 299.22 113.533C300.197 113.454 301.174 113.414 302.115 113.214C303.815 113.015 305.769 112.337 307.252 111.739C308.771 111.06 310.074 109.864 310.978 108.308L316.55 98.4558L331.093 72.7681" stroke="white" stroke-width="1.5" stroke-miterlimit="10" stroke-linecap="round" stroke-linejoin="round"/>
<path d="M321.349 39.7006C331.226 45.7636 337.123 54.7783 335.748 63.5535C333.722 76.6766 316.356 84.2952 297.037 80.6653C277.682 77.0356 263.645 63.4738 265.671 50.3507C267.046 41.5754 275.294 35.2333 286.437 33.1191" stroke="white" stroke-width="1.5" stroke-miterlimit="10" stroke-linecap="round" stroke-linejoin="round"/>
<path d="M325.193 51.8635C323.746 61.2769 312.205 67.021 299.543 64.6273C286.808 62.2342 277.728 52.6211 279.175 43.1683C279.79 39.1795 282.178 35.8684 285.759 33.5547C285.759 33.5547 285.94 33.4753 286.085 33.3555C287.243 36.5063 289.088 39.4584 291.548 41.8915C300.339 50.5069 313.797 49.6694 321.648 40.0568C321.756 40.2165 321.865 40.3359 321.901 40.3359C324.542 43.846 325.808 47.8747 325.193 51.8635Z" stroke="white" stroke-width="1.5" stroke-miterlimit="10" stroke-linecap="round" stroke-linejoin="round"/>
<path d="M321.722 39.9796C321.686 40.0196 321.686 40.0196 321.65 40.0594C313.799 49.672 300.341 50.5095 291.549 41.8941C289.089 39.461 287.244 36.5089 286.086 33.3581C283.012 25.2612 284.205 15.6078 289.849 8.6275C297.7 -1.06495 311.194 -1.94243 319.985 6.71296C328.813 15.3687 329.573 30.2868 321.722 39.9796Z" fill="white" stroke="white" stroke-width="1.5" stroke-miterlimit="10" stroke-linecap="round" stroke-linejoin="round"/>
<path d="M221.672 172.096L235.974 159.465" stroke="white" stroke-width="1.5" stroke-miterlimit="10" stroke-linecap="round" stroke-linejoin="round"/>
<path d="M207.59 163.687L209.474 140.357" stroke="white" stroke-width="1.5" stroke-miterlimit="10" stroke-linecap="round" stroke-linejoin="round"/>
</svg>
